<?xml version="1.0" encoding="UTF-8"?>
<svg width="32px" height="32px" viewBox="0 0 32 32" version="1.1" xmlns="http://www.w3.org/2000/svg" xmlns:xlink="http://www.w3.org/1999/xlink">
    <!-- Generator: Sketch 57.1 (83088) - https://sketch.com -->
    <title>Fill 34</title>
    <desc>Created with Sketch.</desc>
    <g id="Page-1" stroke="none" stroke-width="1" fill="none" fill-rule="evenodd">
        <g id="Artboard" transform="translate(-293.000000, -111.000000)" fill="#666666">
            <path d="M308.9995,111.3951 C300.1645,111.3951 293.0005,118.5581 293.0005,127.3961 C293.0005,134.4641 297.5845,140.4611 303.9435,142.5771 C304.7435,142.7241 305.0355,142.2301 305.0355,141.8061 C305.0355,141.4261 305.0215,140.4201 305.0135,139.0851 C300.5625,140.0521 299.6235,136.9401 299.6235,136.9401 C298.8965,135.0921 297.8475,134.6001 297.8475,134.6001 C296.3945,133.6071 297.9575,133.6271 297.9575,133.6271 C299.5625,133.7401 300.4075,135.2761 300.4075,135.2761 C301.8355,137.7211 304.1525,137.0151 305.0645,136.6051 C305.2095,135.5711 305.6235,134.8661 306.0805,134.4661 C302.5275,134.0621 298.7925,132.6901 298.7925,126.5591 C298.7925,124.8121 299.4155,123.3841 300.4395,122.2651 C300.2745,121.8601 299.7255,120.2341 300.5955,118.0311 C300.5955,118.0311 301.9395,117.6011 304.9955,119.6711 C306.2725,119.3161 307.6405,119.1391 309.0015,119.1321 C310.3605,119.1391 311.7295,119.3161 313.0075,119.6711 C316.0615,117.6011 317.4025,118.0311 317.4025,118.0311 C318.2755,120.2341 317.7265,121.8601 317.5615,122.2651 C318.5875,123.3841 319.2065,124.8121 319.2065,126.5591 C319.2065,132.7051 315.4655,134.0581 311.9015,134.4541 C312.4755,134.9481 312.9875,135.9241 312.9875,137.4171 C312.9875,139.5561 312.9675,141.2811 312.9675,141.8061 C312.9675,142.2341 313.2555,142.7321 314.0675,142.5751 C320.4205,140.4551 325.0005,134.4621 325.0005,127.3961 C325.0005,118.5581 317.8365,111.3951 308.9995,111.3951" id="Fill-34"></path>
        </g>
    </g>
</svg>