<?xml version="1.0" encoding="UTF-8"?>
<svg width="32px" height="26px" viewBox="0 0 32 26" version="1.1" xmlns="http://www.w3.org/2000/svg" xmlns:xlink="http://www.w3.org/1999/xlink">
    <!-- Generator: Sketch 57.1 (83088) - https://sketch.com -->
    <title>Fill 1</title>
    <desc>Created with Sketch.</desc>
    <g id="Page-1" stroke="none" stroke-width="1" fill="none" fill-rule="evenodd">
        <g id="Artboard" transform="translate(-137.000000, -62.000000)" fill="#666666">
            <path d="M169.0005,65.0756 C167.8235,65.5976 166.5575,65.9506 165.2295,66.1096 C166.5855,65.2966 167.6265,64.0106 168.1165,62.4776 C166.8485,63.2296 165.4425,63.7756 163.9475,64.0706 C162.7495,62.7946 161.0435,61.9976 159.1555,61.9976 C155.5295,61.9976 152.5905,64.9366 152.5905,68.5626 C152.5905,69.0766 152.6485,69.5776 152.7605,70.0586 C147.3035,69.7846 142.4665,67.1706 139.2285,63.1986 C138.6635,64.1686 138.3395,65.2966 138.3395,66.4996 C138.3395,68.7766 139.4985,70.7866 141.2595,71.9636 C140.1835,71.9296 139.1715,71.6346 138.2865,71.1426 C138.2855,71.1706 138.2855,71.1976 138.2855,71.2256 C138.2855,74.4066 140.5485,77.0596 143.5525,77.6626 C143.0015,77.8126 142.4215,77.8926 141.8225,77.8926 C141.3995,77.8926 140.9885,77.8516 140.5875,77.7756 C141.4225,80.3836 143.8475,82.2816 146.7205,82.3346 C144.4735,84.0956 141.6425,85.1446 138.5665,85.1446 C138.0365,85.1446 137.5145,85.1136 137.0005,85.0536 C139.9055,86.9156 143.3565,88.0026 147.0645,88.0026 C159.1405,88.0026 165.7435,77.9986 165.7435,69.3236 C165.7435,69.0386 165.7375,68.7556 165.7245,68.4736 C167.0075,67.5486 168.1205,66.3926 169.0005,65.0756" id="Fill-1"></path>
        </g>
    </g>
</svg>